<svg id="line" enable-background="new 0 0 64 64" height="512" viewBox="0 0 64 64" width="512" xmlns="http://www.w3.org/2000/svg"><g><g fill="#1273EB"><path d="m55 13h-39c-1.7 0-3 1.3-3 3v31c0 1.7 1.3 3 3 3h5v7c0 .9 1.1 1.3 1.7.7l7.7-7.7h26.6c.6 0 1-.4 1-1v-33c0-1.7-1.3-3-3-3zm-32 23c-2.2 0-4-1.8-4-4s1.8-4 4-4 4 1.8 4 4-1.8 4-4 4zm12.5-.5c-2.2 0-4-1.8-4-4s1.8-4 4-4 4 1.8 4 4-1.8 4-4 4zm12.5.5c-2.2 0-4-1.8-4-4s1.8-4 4-4 4 1.8 4 4-1.8 4-4 4z"/><path d="m60 18v31c0 1.7-1.3 3-3 3h-25.8l-3 3h17.3l7.7 7.7c.6.6 1.7.2 1.7-.7v-7h5c1.7 0 3-1.3 3-3v-31c.1-1.7-1.2-3-2.9-3z"/></g><g fill="#14166c"><path d="m44.5 30h3.5c1.7 0 3-1.3 3-3v-23c0-1.7-1.3-3-3-3h-44c-1.7 0-3 1.3-3 3v27c0 .6.4 1 1 1h24c.6 0 1-.4 1-1 0-.3 0-.7-.1-1h2.6c.1 2.2 1.3 4.2 3 5.5-5.5 1.5-9.5 6.5-9.5 12.5v1c0 .6.4 1 1 1h26c.6 0 1-.4 1-1v-1c0-6-4-11-9.5-12.5 1.7-1.3 2.8-3.3 3-5.5zm-41.5 0c.5-5.6 5.2-10 11-10s10.4 4.4 11 10zm6-17c0-2.8 2.2-5 5-5s5 2.2 5 5-2.2 5-5 5-5-2.2-5-5zm17.6 15c-1-4.4-4.3-7.9-8.5-9.3 1.8-1.3 2.9-3.3 2.9-5.7 0-3.9-3.1-7-7-7s-7 3.1-7 7c0 2.3 1.2 4.4 2.9 5.7-2.9 1-5.3 2.9-6.9 5.4v-20.1c0-.6.4-1 1-1h44c.6 0 1 .4 1 1v23c0 .6-.4 1-1 1h-3.7c-.7-3.4-3.7-6-7.3-6s-6.7 2.6-7.3 6zm22.4 20h-24c0-6.1 4.9-11 11-11h2c6.1 0 11 4.9 11 11zm-12-13c-3 0-5.5-2.5-5.5-5.5s2.5-5.5 5.5-5.5 5.5 2.5 5.5 5.5-2.5 5.5-5.5 5.5z"/><path d="m25 10h20c.6 0 1-.4 1-1s-.4-1-1-1h-20c-.6 0-1 .4-1 1s.4 1 1 1z"/><path d="m46 19c0-.6-.4-1-1-1h-20c-.6 0-1 .4-1 1s.4 1 1 1h20c.6 0 1-.4 1-1z"/><path d="m25 15h20c.6 0 1-.4 1-1s-.4-1-1-1h-20c-.6 0-1 .4-1 1s.4 1 1 1z"/></g></g></svg>