<svg id="line" enable-background="new 0 0 64 64" height="512" viewBox="0 0 64 64" width="512" xmlns="http://www.w3.org/2000/svg"><g><path d="m60 16h-30c-1.7 0-3 1.3-3 3v41c0 1.7 1.3 3 3 3h30c1.7 0 3-1.3 3-3v-41c0-1.7-1.3-3-3-3zm-26 5h22c.6 0 1 .4 1 1s-.4 1-1 1h-22c-.6 0-1-.4-1-1s.4-1 1-1zm0 6h22c.6 0 1 .4 1 1s-.4 1-1 1h-22c-.6 0-1-.4-1-1s.4-1 1-1zm0 6h22c.6 0 1 .4 1 1s-.4 1-1 1h-22c-.6 0-1-.4-1-1s.4-1 1-1zm0 6h22c.6 0 1 .4 1 1s-.4 1-1 1h-22c-.6 0-1-.4-1-1s.4-1 1-1zm0 6h22c.6 0 1 .4 1 1s-.4 1-1 1h-22c-.6 0-1-.4-1-1s.4-1 1-1zm23.6 7.8-6 5c-.6.5-1.6 0-1.6-.8v-2.9l-4.4 3.6c-.6.6-1.6.1-1.6-.7v-2.9l-4.4 3.6c-.6.6-1.6.1-1.6-.7v-2.9l-4.4 3.6c-.4.4-1.1.3-1.4-.1-.4-.4-.3-1.1.1-1.4l6-5c.7-.5 1.7 0 1.7.8v2.9l4.4-3.6c.6-.6 1.6-.1 1.6.7v2.9l4.4-3.6c.6-.6 1.6-.1 1.6.7v2.9l4.4-3.6c.4-.4 1.1-.3 1.4.1s.3 1-.2 1.4z" fill="#1273EB"/><g fill="#14166c"><path d="m42.1 37.7c1.8-1.3 2.9-3.3 2.9-5.7 0-3.9-3.1-7-7-7s-7 3.1-7 7c0 2.3 1.2 4.4 2.9 5.7-3.6 1.2-6.5 3.9-7.9 7.3-1.4-3.5-4.3-6.2-7.9-7.3 1.8-1.3 2.9-3.3 2.9-5.7 0-3.9-3.1-7-7-7s-7 3.1-7 7c0 2.3 1.2 4.4 2.9 5.7-5.2 1.7-8.9 6.6-8.9 12.3 0 .6.4 1 1 1h48c.6 0 1-.4 1-1 0-5.7-3.7-10.6-8.9-12.3zm-33.1-5.7c0-2.8 2.2-5 5-5s5 2.2 5 5-2.2 5-5 5-5-2.2-5-5zm-6 17c.5-5.6 5.2-10 11-10s10.4 4.4 11 10zm30-17c0-2.8 2.2-5 5-5s5 2.2 5 5-2.2 5-5 5-5-2.2-5-5zm-6 17c.5-5.6 5.2-10 11-10s10.4 4.4 11 10z"/><path d="m48 1h-44c-1.7 0-3 1.3-3 3v11c0 1.7 1.3 3 3 3h5.5l3.7 4.6c.4.5 1.2.5 1.6 0l3.7-4.6h15l3.7 4.6c.2.2.5.4.8.4s.6-.1.8-.4l3.7-4.6h5.5c1.7 0 3-1.3 3-3v-11c0-1.7-1.3-3-3-3zm1 14c0 .6-.4 1-1 1h-6c-.3 0-.6.1-.8.4l-3.2 4-3.2-4c-.2-.3-.5-.4-.8-.4h-16c-.3 0-.6.1-.8.4l-3.2 4-3.2-4c-.2-.3-.5-.4-.8-.4h-6c-.6 0-1-.4-1-1v-11c0-.6.4-1 1-1h44c.6 0 1 .4 1 1z"/><path d="m45 6h-38c-.6 0-1 .4-1 1s.4 1 1 1h38c.6 0 1-.4 1-1s-.4-1-1-1z"/><path d="m45 11h-38c-.6 0-1 .4-1 1s.4 1 1 1h38c.6 0 1-.4 1-1s-.4-1-1-1z"/></g></g></svg>