<svg id="line" enable-background="new 0 0 64 64" viewBox="0 0 64 64" xmlns="http://www.w3.org/2000/svg"><g><path d="m62.7 20.3-8-8c-.2-.2-.4-.3-.7-.3h-24c-1.7 0-3 1.3-3 3v44c0 1.7 1.3 3 3 3h30c1.7 0 3-1.3 3-3v-38c0-.3-.1-.5-.3-.7zm-17.7-.3c2.8 0 5 2.2 5 5s-2.2 5-5 5-5-2.2-5-5 2.2-5 5-5zm-5.2 9.7c1.3 1.4 3.1 2.3 5.2 2.3s3.9-.9 5.2-2.3c2.3 1.6 3.8 4.3 3.8 7.3 0 .6-.4 1-1 1h-16c-.6 0-1-.4-1-1 0-3 1.5-5.7 3.8-7.3zm17.2 24.3h-24c-.6 0-1-.4-1-1s.4-1 1-1h24c.6 0 1 .4 1 1s-.4 1-1 1zm0-8h-24c-.6 0-1-.4-1-1s.4-1 1-1h24c.6 0 1 .4 1 1s-.4 1-1 1zm-2-26v-4.6l4.6 4.6z" fill="#1273EB"/><g fill="#14166c"><path d="m19.5 35.5c1.8-1.4 3-3.5 3-6 0-4.1-3.4-7.5-7.5-7.5s-7.5 3.4-7.5 7.5c0 2.4 1.2 4.6 3 6-5.5 1.5-9.5 6.5-9.5 12.5v1c0 .6.4 1 1 1h26c.6 0 1-.4 1-1v-1c0-6-4-11-9.5-12.5zm-10-6c0-3 2.5-5.5 5.5-5.5s5.5 2.5 5.5 5.5-2.5 5.5-5.5 5.5-5.5-2.5-5.5-5.5zm8.1 7.6-2.6 5.3-2.6-5.3c.5-.1 1.1-.1 1.6-.1h2c.6 0 1.1.1 1.6.1zm-14.6 10.9c0-4.8 3.1-8.9 7.4-10.4l3.7 7.5c.4.7 1.4.7 1.8 0l3.7-7.5c4.3 1.5 7.4 5.6 7.4 10.4z"/><path d="m42.1 14.7c1.7-1.3 2.9-3.4 2.9-5.7 0-3.9-3.1-7-7-7s-7 3.1-7 7c0 2.3 1.2 4.4 2.9 5.7-5.2 1.7-8.9 6.6-8.9 12.3 0 .6.4 1 1 1h24c.6 0 1-.4 1-1 0-5.7-3.7-10.6-8.9-12.3zm-9.1-5.7c0-2.8 2.2-5 5-5s5 2.2 5 5-2.2 5-5 5-5-2.2-5-5zm-6 17c.5-5.6 5.2-10 11-10s10.4 4.4 11 10z"/><path d="m15 20c.6 0 1-.4 1-1v-8c0-.6.4-1 1-1h8.6l-2.3 2.3c-.4.4-.4 1 0 1.4s1 .4 1.4 0l4-4c.4-.4.4-1 0-1.4l-4-4c-.4-.4-1-.4-1.4 0s-.4 1 0 1.4l2.3 2.3h-8.6c-1.7 0-3 1.3-3 3v8c0 .6.4 1 1 1z"/></g></g></svg>