<svg id="line" height="512" viewBox="0 0 64 64" width="512" xmlns="http://www.w3.org/2000/svg"><path d="m62 30.5h-11.84l2.84-18.85a1 1 0 0 0 -1.75-.8l-24 28a1 1 0 0 0 .75 1.65h11.84l-2.84 18.85a1 1 0 0 0 1.75.8l24-28a1 1 0 0 0 -.75-1.65z" fill="#1273EB"/><g fill="#151a6a"><path d="m50.9 24.06-4-7.95a14 14 0 0 0 -20.9-10.72 14 14 0 0 0 -20.92 10.72l-4 8a1 1 0 0 0 .92 1.39h3v3a3 3 0 0 0 3 3h4v5a1 1 0 0 0 1 1h11a1 1 0 0 0 1-1v-6.35c.34-.16.68-.34 1-.52.33.18.66.36 1 .52v6.35a1 1 0 0 0 1 1h11a1 1 0 0 0 1-1v-5h4a3 3 0 0 0 3-3v-3h3a1 1 0 0 0 .9-1.44zm-27.28 4.52a1 1 0 0 0 -.62.92v6h-9v-5a1 1 0 0 0 -1-1h-5a1 1 0 0 1 -1-1v-4a1 1 0 0 0 -1-1h-2.38l3.38-6.66a1 1 0 0 0 .1-.36 11.91 11.91 0 0 1 12.67-10.95 11.51 11.51 0 0 1 4.35 1.16 14 14 0 0 0 0 21.65zm2.38-1.34a11.93 11.93 0 0 1 0-19.42 11.92 11.92 0 0 1 0 19.42zm20-3.74a1 1 0 0 0 -1 1v4a1 1 0 0 1 -1 1h-5a1 1 0 0 0 -1 1v5h-9v-6a1 1 0 0 0 -.61-.92l-.53-.24a14 14 0 0 0 0-21.65 11.51 11.51 0 0 1 4.35-1.16 11.93 11.93 0 0 1 12.79 10.95 1 1 0 0 0 .1.36l3.33 6.66z"/><path d="m28 16.5h-4a1 1 0 0 0 0 2h4a1 1 0 0 0 0-2z"/><path d="m25 14.5h2a1 1 0 0 0 0-2h-2a1 1 0 0 0 0 2z"/><path d="m27 20.5h-2a1 1 0 0 0 0 2h2a1 1 0 0 0 0-2z"/></g></svg>