<?xml version="1.0" encoding="UTF-8"?>
<svg xmlns="http://www.w3.org/2000/svg" id="line" height="512" viewBox="0 0 64 64" width="512" class="hovered-paths">
  <g>
    <g fill="#c4a2fc">
      <path d="m17 38h-3a1 1 0 0 1 0-2h3a1 1 0 0 1 0 2z" data-original="#C4A2FC" class="hovered-path active-path" style="fill:#1273EB" data-old_color="#C4A2FC"></path>
      <path d="m15.72 48.35a1 1 0 0 1 .44-1.35l2.67-1.36a1 1 0 0 1 1.35.44 1 1 0 0 1 -.44 1.34l-2.67 1.37a1 1 0 0 1 -1.35-.44z" data-original="#C4A2FC" class="hovered-path active-path" style="fill:#1273EB" data-old_color="#C4A2FC"></path>
      <path d="m62 38h-3a1 1 0 0 1 0-2h3a1 1 0 0 1 0 2z" data-original="#C4A2FC" class="hovered-path active-path" style="fill:#1273EB" data-old_color="#C4A2FC"></path>
      <path d="m55.82 27.92a1 1 0 0 1 .44-1.34l2.67-1.37a1 1 0 0 1 .91 1.79l-2.67 1.36a1 1 0 0 1 -1.35-.44z" data-original="#C4A2FC" class="hovered-path active-path" style="fill:#1273EB" data-old_color="#C4A2FC"></path>
      <path d="m58.93 48.79-2.67-1.37a1 1 0 0 1 -.44-1.34 1 1 0 0 1 1.35-.44l2.67 1.36a1 1 0 0 1 -.91 1.79z" data-original="#C4A2FC" class="hovered-path active-path" style="fill:#1273EB" data-old_color="#C4A2FC"></path>
      <path d="m29.55 55h7.45v-9.46l-2.55-1.71a1 1 0 1 1 1.1-1.66l2.45 1.63 2.45-1.63a1 1 0 0 1 1.1 1.66l-2.55 1.71v9.46h7.38a21.55 21.55 0 0 1 4.16-6.54 17 17 0 1 0 -25.2-.13 23 23 0 0 1 4.21 6.67zm13.45-23a4 4 0 1 1 -4 4 4 4 0 0 1 4-4zm-10 0a4 4 0 1 1 -4 4 4 4 0 0 1 4-4z" data-original="#C4A2FC" class="hovered-path active-path" style="fill:#1273EB" data-old_color="#C4A2FC"></path>
      <path d="m30.25 57a18.61 18.61 0 0 1 .61 2.93l.14 1.19a1 1 0 0 0 1 .88h12a1 1 0 0 0 1-.88l.19-1.53a19.51 19.51 0 0 1 .52-2.59z" data-original="#C4A2FC" class="hovered-path active-path" style="fill:#1273EB" data-old_color="#C4A2FC"></path>
    </g>
    <path d="m41.49 15.49a7.5 7.5 0 1 0 -9 0 12.26 12.26 0 0 0 -1.44.5 7.45 7.45 0 0 0 -10.16 0 12.26 12.26 0 0 0 -1.44-.5 7.5 7.5 0 1 0 -9 0 13 13 0 0 0 -9.45 12.51v1a1 1 0 0 0 1 1h14.7a13 13 0 0 0 -4.7 10v1a1 1 0 0 0 1 1h26a1 1 0 0 0 1-1v-1a13 13 0 0 0 -4.71-10h14.71a1 1 0 0 0 1-1v-1a13 13 0 0 0 -9.51-12.51zm-10-6a5.5 5.5 0 1 1 5.51 5.51 5.51 5.51 0 0 1 -5.5-5.5zm-5.49 6.51a5.5 5.5 0 1 1 -5.5 5.5 5.51 5.51 0 0 1 5.5-5.5zm-16.5-6.5a5.5 5.5 0 1 1 5.5 5.5 5.51 5.51 0 0 1 -5.5-5.5zm-6.5 18.5a11 11 0 0 1 11-11h2a11 11 0 0 1 3.6.61 7.45 7.45 0 0 0 1.91 9.88 12 12 0 0 0 -1.51.51zm35 12h-24a11 11 0 0 1 11-11h2a11 11 0 0 1 11 11zm-6-12a12 12 0 0 0 -1.5-.51 7.45 7.45 0 0 0 1.91-9.88 11 11 0 0 1 3.59-.61h2a11 11 0 0 1 11 11z" fill="#151a6a" data-original="#151A6A" class="" data-old_color="#151a6a" style="fill:#151a6a"></path>
  </g>
</svg>
